<?xml version="1.0" encoding="UTF-8" standalone="no"?>
<!-- Created with Inkscape (http://www.inkscape.org/) -->

<svg
   version="1.1"
   id="svg2"
   width="607.64801"
   height="620.30798"
   viewBox="0 0 607.64801 620.30798"
   xmlns="http://www.w3.org/2000/svg"
   xmlns:svg="http://www.w3.org/2000/svg">
  <defs
     id="defs6">
    <clipPath
       clipPathUnits="userSpaceOnUse"
       id="clipPath20">
      <path
         d="M 0,465.231 H 455.736 V 0 H 0 Z"
         id="path18" />
    </clipPath>
  </defs>
  <g
     id="g8"
     transform="matrix(1.3333333,0,0,-1.3333333,0,620.308)">
    <g
       id="g10"
       transform="translate(43.897,135.3149)">
      <path
         d="M 0,0 V 45.14 H 3.933 L 24.569,9.93 h -2.063 l 20.442,35.21 h 3.933 V 0 H 42.303 V 37.983 H 43.4 L 24.569,5.739 H 22.313 L 3.353,37.983 H 4.578 L 4.578,0 Z"
         style="fill:#1d1d1b;fill-opacity:1;fill-rule:nonzero;stroke:none"
         id="path12" />
    </g>
    <g
       id="g14">
      <g
         id="g16"
         clip-path="url(#clipPath20)">
        <g
           id="g22"
           transform="translate(125.2133,139.1835)">
          <path
             d="m 0,0 c 2.708,0 5.212,0.463 7.513,1.387 2.299,0.924 4.298,2.235 5.997,3.934 1.698,1.697 3.02,3.676 3.966,5.932 0.945,2.257 1.419,4.74 1.419,7.449 0,2.708 -0.474,5.19 -1.419,7.447 -0.946,2.258 -2.268,4.234 -3.966,5.934 C 11.811,33.78 9.812,35.091 7.513,36.016 5.212,36.94 2.708,37.403 0,37.403 c -2.709,0 -5.223,-0.463 -7.544,-1.387 -2.322,-0.925 -4.343,-2.236 -6.062,-3.933 -1.72,-1.7 -3.054,-3.676 -3.998,-5.934 -0.947,-2.257 -1.419,-4.739 -1.419,-7.447 0,-2.667 0.472,-5.138 1.419,-7.416 0.944,-2.28 2.278,-4.268 3.998,-5.965 1.719,-1.699 3.74,-3.01 6.062,-3.934 C -5.223,0.463 -2.709,0 0,0 m 0,-4.256 c -3.396,0 -6.545,0.57 -9.447,1.709 -2.902,1.139 -5.416,2.751 -7.545,4.837 -2.128,2.084 -3.783,4.514 -4.965,7.287 -1.183,2.773 -1.774,5.814 -1.774,9.125 0,3.31 0.591,6.352 1.774,9.124 1.182,2.773 2.837,5.201 4.965,7.287 2.129,2.085 4.632,3.697 7.512,4.837 2.88,1.138 6.04,1.708 9.48,1.708 3.396,0 6.534,-0.57 9.415,-1.708 2.88,-1.14 5.385,-2.741 7.513,-4.804 2.127,-2.064 3.782,-4.493 4.965,-7.288 1.182,-2.795 1.774,-5.846 1.774,-9.156 0,-3.311 -0.592,-6.364 -1.774,-9.158 C 20.71,6.75 19.055,4.322 16.928,2.258 14.8,0.194 12.295,-1.408 9.415,-2.547 6.534,-3.686 3.396,-4.256 0,-4.256"
             style="fill:#1d1d1b;fill-opacity:1;fill-rule:nonzero;stroke:none"
             id="path24" />
        </g>
        <g
           id="g26"
           transform="translate(190.4079,135.3149)">
          <path
             d="m 0,0 -11.607,16.379 h 5.158 L 5.224,0 Z m -26.052,16.122 -2.128,2.256 h 14.122 c 4.515,0 7.942,0.989 10.285,2.966 2.343,1.978 3.515,4.751 3.515,8.32 0,3.611 -1.172,6.405 -3.515,8.383 -2.343,1.977 -5.77,2.966 -10.285,2.966 H -28.18 l 2.128,2.257 z M -30.824,0 v 45.14 h 16.896 c 3.825,0 7.114,-0.613 9.865,-1.837 2.752,-1.226 4.87,-2.989 6.352,-5.288 1.484,-2.301 2.226,-5.085 2.226,-8.351 0,-3.183 -0.742,-5.923 -2.226,-8.222 -1.482,-2.3 -3.6,-4.063 -6.352,-5.288 -2.751,-1.226 -6.04,-1.838 -9.865,-1.838 H -28.18 l 2.128,2.193 V 0 Z"
             style="fill:#1d1d1b;fill-opacity:1;fill-rule:nonzero;stroke:none"
             id="path28" />
        </g>
        <path
           d="m 210.462,160.272 h 23.86 v -4.063 h -23.86 z m 0.516,-20.83 h 27.149 v -4.127 h -31.921 v 45.14 h 30.954 v -4.127 h -26.182 z"
           style="fill:#1d1d1b;fill-opacity:1;fill-rule:nonzero;stroke:none"
           id="path30" />
        <g
           id="g32"
           transform="translate(261.7926,134.9278)">
          <path
             d="m 0,0 c -3.353,0 -6.568,0.549 -9.64,1.644 -3.074,1.097 -5.45,2.505 -7.126,4.225 l 1.869,3.675 c 1.591,-1.548 3.73,-2.848 6.417,-3.902 2.687,-1.053 5.514,-1.579 8.48,-1.579 2.837,0 5.147,0.354 6.932,1.064 1.783,0.709 3.095,1.666 3.934,2.869 0.838,1.203 1.258,2.536 1.258,3.998 0,1.763 -0.506,3.182 -1.516,4.257 -1.011,1.074 -2.333,1.924 -3.966,2.547 -1.635,0.623 -3.44,1.171 -5.417,1.644 -1.978,0.472 -3.955,0.978 -5.933,1.516 -1.977,0.537 -3.794,1.257 -5.449,2.16 -1.655,0.903 -2.988,2.096 -3.998,3.579 -1.01,1.483 -1.515,3.428 -1.515,5.836 0,2.235 0.59,4.288 1.773,6.159 1.183,1.869 2.998,3.374 5.449,4.514 2.451,1.138 5.588,1.708 9.415,1.708 2.536,0 5.052,-0.354 7.546,-1.064 2.492,-0.709 4.642,-1.688 6.447,-2.934 l -1.612,-3.805 c -1.934,1.291 -3.988,2.236 -6.157,2.838 -2.172,0.601 -4.268,0.903 -6.289,0.903 -2.708,0 -4.943,-0.366 -6.706,-1.097 -1.763,-0.731 -3.063,-1.708 -3.901,-2.934 -0.839,-1.225 -1.257,-2.612 -1.257,-4.159 0,-1.764 0.504,-3.182 1.515,-4.257 1.01,-1.075 2.343,-1.912 3.998,-2.514 1.655,-0.603 3.472,-1.14 5.449,-1.612 1.977,-0.473 3.944,-0.99 5.9,-1.548 1.956,-0.559 3.762,-1.279 5.417,-2.16 1.655,-0.882 2.988,-2.054 3.998,-3.515 1.01,-1.462 1.516,-3.375 1.516,-5.74 0,-2.191 -0.603,-4.223 -1.806,-6.092 C 13.821,4.353 11.983,2.848 9.512,1.709 7.039,0.569 3.869,0 0,0"
             style="fill:#1d1d1b;fill-opacity:1;fill-rule:nonzero;stroke:none"
             id="path34" />
        </g>
        <path
           d="m 293.26,160.272 h 23.86 v -4.063 h -23.86 z m 0.517,-20.83 h 27.148 v -4.127 h -31.92 v 45.14 h 30.953 v -4.127 h -26.181 z"
           style="fill:#1d1d1b;fill-opacity:1;fill-rule:nonzero;stroke:none"
           id="path36" />
        <path
           d="m 336.401,160.272 h 23.86 v -4.063 h -23.86 z m 0.517,-20.83 h 27.148 v -4.127 h -31.921 v 45.14 h 30.954 v -4.127 h -26.181 z"
           style="fill:#1d1d1b;fill-opacity:1;fill-rule:nonzero;stroke:none"
           id="path38" />
        <g
           id="g40"
           transform="translate(375.2861,135.3149)">
          <path
             d="M 0,0 V 45.14 H 3.933 L 35.08,5.932 H 33.017 V 45.14 h 4.708 V 0 H 33.79 L 2.709,39.207 H 4.772 L 4.772,0 Z"
             style="fill:#1d1d1b;fill-opacity:1;fill-rule:nonzero;stroke:none"
             id="path42" />
        </g>
        <g
           id="g44"
           transform="translate(45.2292,95.4353)">
          <path
             d="m 0,0 -1.116,1.218 h 7.409 c 2.369,0 4.167,0.513 5.396,1.539 1.23,1.027 1.844,2.475 1.844,4.348 0,1.895 -0.614,3.361 -1.844,4.398 C 10.46,12.54 8.662,13.06 6.293,13.06 H -1.116 L 0,14.244 Z m -2.504,-8.459 v 23.684 h 8.865 c 2.007,0 3.732,-0.321 5.176,-0.964 1.444,-0.643 2.555,-1.568 3.333,-2.775 0.778,-1.206 1.167,-2.667 1.167,-4.381 0,-1.67 -0.389,-3.108 -1.167,-4.314 C 14.092,1.585 12.981,0.654 11.537,0 10.093,-0.655 8.368,-0.981 6.361,-0.981 H -1.116 L 0,0.203 v -8.662 z"
             style="fill:#1d1d1b;fill-opacity:1;fill-rule:nonzero;stroke:none"
             id="path46" />
        </g>
        <g
           id="g48"
           transform="translate(93.3071,86.7737)">
          <path
             d="m 0,0 c -3.023,0 -5.402,0.868 -7.139,2.605 -1.737,1.737 -2.605,4.308 -2.605,7.714 V 23.887 H -7.24 V 10.421 C -7.24,7.624 -6.609,5.56 -5.346,4.229 -4.083,2.898 -2.3,2.233 0,2.233 c 2.323,0 4.116,0.665 5.38,1.996 1.263,1.331 1.895,3.395 1.895,6.192 V 23.887 H 9.71 V 10.319 C 9.71,6.913 8.848,4.342 7.123,2.605 5.396,0.868 3.023,0 0,0"
             style="fill:#1d1d1b;fill-opacity:1;fill-rule:nonzero;stroke:none"
             id="path50" />
        </g>
        <g
           id="g52"
           transform="translate(129.983,89.0405)">
          <path
             d="m 0,0 h 8.357 c 2.075,0 3.666,0.355 4.77,1.066 1.106,0.71 1.659,1.844 1.659,3.401 0,1.533 -0.553,2.656 -1.659,3.366 -1.104,0.71 -2.695,1.066 -4.77,1.066 h -8.628 v 2.064 h 7.816 c 1.894,0 3.367,0.36 4.415,1.082 1.049,0.722 1.573,1.793 1.573,3.214 0,1.444 -0.524,2.521 -1.573,3.231 -1.048,0.711 -2.521,1.066 -4.415,1.066 H 0 Z M -2.504,-2.064 V 21.62 H 7.714 c 2.639,0 4.686,-0.53 6.141,-1.59 1.455,-1.061 2.182,-2.56 2.182,-4.5 0,-1.286 -0.298,-2.368 -0.896,-3.248 -0.598,-0.88 -1.41,-1.545 -2.436,-1.996 C 11.678,9.834 10.556,9.609 9.338,9.609 l 0.575,0.812 c 1.511,0 2.814,-0.232 3.909,-0.693 1.093,-0.463 1.945,-1.151 2.554,-2.065 0.609,-0.913 0.913,-2.046 0.913,-3.399 0,-2.009 -0.739,-3.565 -2.216,-4.67 -1.477,-1.105 -3.704,-1.658 -6.682,-1.658 z"
             style="fill:#1d1d1b;fill-opacity:1;fill-rule:nonzero;stroke:none"
             id="path54" />
        </g>
        <g
           id="g56"
           transform="translate(169.9064,86.9768)">
          <path
             d="M 0,0 V 23.684 H 2.504 V 2.166 H 15.767 V 0 Z"
             style="fill:#1d1d1b;fill-opacity:1;fill-rule:nonzero;stroke:none"
             id="path58" />
        </g>
        <path
           d="m 206.752,110.661 h 2.504 V 86.977 h -2.504 z"
           style="fill:#1d1d1b;fill-opacity:1;fill-rule:nonzero;stroke:none"
           id="path60" />
        <g
           id="g62"
           transform="translate(240.4166,86.7737)">
          <path
             d="m 0,0 c -1.76,0 -3.445,0.287 -5.058,0.863 -1.613,0.575 -2.859,1.313 -3.739,2.216 l 0.982,1.928 C -6.981,4.195 -5.859,3.513 -4.449,2.96 -3.04,2.407 -1.557,2.131 0,2.131 c 1.489,0 2.701,0.187 3.637,0.558 0.936,0.373 1.624,0.875 2.064,1.506 0.44,0.632 0.66,1.331 0.66,2.098 0,0.925 -0.266,1.669 -0.795,2.233 C 5.035,9.09 4.342,9.535 3.485,9.862 2.628,10.189 1.68,10.477 0.643,10.725 c -1.038,0.248 -2.076,0.514 -3.113,0.796 -1.038,0.281 -1.99,0.659 -2.859,1.133 -0.868,0.473 -1.568,1.099 -2.098,1.878 -0.53,0.778 -0.794,1.798 -0.794,3.062 0,1.172 0.309,2.25 0.93,3.231 0.62,0.981 1.573,1.77 2.859,2.368 1.286,0.597 2.932,0.897 4.94,0.897 1.331,0 2.65,-0.186 3.959,-0.558 1.307,-0.373 2.435,-0.886 3.383,-1.54 L 7.004,19.996 C 5.989,20.673 4.911,21.168 3.772,21.485 2.633,21.8 1.534,21.959 0.474,21.959 -0.947,21.959 -2.12,21.766 -3.045,21.383 -3.97,21 -4.652,20.486 -5.092,19.844 c -0.44,-0.643 -0.66,-1.37 -0.66,-2.182 0,-0.926 0.265,-1.67 0.796,-2.234 0.529,-0.564 1.229,-1.003 2.097,-1.319 C -1.991,13.793 -1.038,13.511 0,13.263 1.037,13.015 2.069,12.744 3.096,12.451 4.122,12.158 5.07,11.779 5.938,11.318 6.806,10.855 7.506,10.24 8.036,9.474 8.565,8.706 8.831,7.703 8.831,6.463 8.831,5.312 8.515,4.246 7.884,3.265 7.252,2.283 6.288,1.494 4.99,0.896 3.693,0.299 2.03,0 0,0"
             style="fill:#1d1d1b;fill-opacity:1;fill-rule:nonzero;stroke:none"
             id="path64" />
        </g>
        <path
           d="m 288.934,110.661 h 2.47 V 86.977 h -2.47 z m 0.237,-12.756 h -15.327 v 2.199 h 15.327 z M 274.115,86.977 h -2.504 v 23.684 h 2.504 z"
           style="fill:#1d1d1b;fill-opacity:1;fill-rule:nonzero;stroke:none"
           id="path66" />
        <path
           d="m 318.267,100.071 h 12.519 V 97.94 h -12.519 z m 0.271,-10.929 h 14.245 v -2.165 h -16.749 v 23.684 h 16.241 v -2.166 h -13.737 z"
           style="fill:#1d1d1b;fill-opacity:1;fill-rule:nonzero;stroke:none"
           id="path68" />
        <g
           id="g70"
           transform="translate(371.7586,86.9768)">
          <path
             d="m 0,0 -6.09,8.594 h 2.707 L 2.741,0 Z m -13.669,8.459 -1.116,1.183 h 7.409 c 2.369,0 4.167,0.519 5.397,1.557 1.229,1.037 1.844,2.492 1.844,4.365 0,1.895 -0.615,3.361 -1.844,4.398 -1.23,1.037 -3.028,1.556 -5.397,1.556 h -7.409 l 1.116,1.185 z M -16.173,0 v 23.684 h 8.865 c 2.007,0 3.733,-0.322 5.177,-0.964 1.443,-0.644 2.555,-1.568 3.332,-2.775 0.778,-1.207 1.168,-2.667 1.168,-4.381 0,-1.67 -0.39,-3.108 -1.168,-4.314 C 0.424,10.043 -0.688,9.119 -2.131,8.475 -3.575,7.833 -5.301,7.511 -7.308,7.511 h -7.477 l 1.116,1.151 V 0 Z"
             style="fill:#1d1d1b;fill-opacity:1;fill-rule:nonzero;stroke:none"
             id="path72" />
        </g>
        <g
           id="g74"
           transform="translate(403.4949,86.7737)">
          <path
             d="m 0,0 c -1.76,0 -3.445,0.287 -5.058,0.863 -1.613,0.575 -2.859,1.313 -3.739,2.216 l 0.982,1.928 C -6.981,4.195 -5.859,3.513 -4.449,2.96 -3.04,2.407 -1.557,2.131 0,2.131 c 1.489,0 2.701,0.187 3.637,0.558 0.936,0.373 1.624,0.875 2.064,1.506 0.44,0.632 0.66,1.331 0.66,2.098 0,0.925 -0.266,1.669 -0.795,2.233 C 5.035,9.09 4.342,9.535 3.485,9.862 2.628,10.189 1.68,10.477 0.643,10.725 c -1.038,0.248 -2.076,0.514 -3.113,0.796 -1.038,0.281 -1.99,0.659 -2.859,1.133 -0.868,0.473 -1.568,1.099 -2.098,1.878 -0.53,0.778 -0.794,1.798 -0.794,3.062 0,1.172 0.309,2.25 0.93,3.231 0.62,0.981 1.573,1.77 2.859,2.368 1.286,0.597 2.932,0.897 4.94,0.897 1.331,0 2.65,-0.186 3.959,-0.558 1.307,-0.373 2.435,-0.886 3.382,-1.54 L 7.004,19.996 C 5.989,20.673 4.911,21.168 3.772,21.485 2.633,21.8 1.534,21.959 0.474,21.959 -0.947,21.959 -2.12,21.766 -3.045,21.383 -3.97,21 -4.652,20.486 -5.092,19.844 c -0.44,-0.643 -0.66,-1.37 -0.66,-2.182 0,-0.926 0.265,-1.67 0.796,-2.234 0.529,-0.564 1.229,-1.003 2.097,-1.319 C -1.991,13.793 -1.038,13.511 0,13.263 1.037,13.015 2.069,12.744 3.096,12.451 4.122,12.158 5.07,11.779 5.938,11.318 6.806,10.855 7.506,10.24 8.036,9.474 8.565,8.706 8.831,7.703 8.831,6.463 8.831,5.312 8.515,4.246 7.884,3.265 7.252,2.283 6.288,1.494 4.99,0.896 3.693,0.299 2.03,0 0,0"
             style="fill:#1d1d1b;fill-opacity:1;fill-rule:nonzero;stroke:none"
             id="path76" />
        </g>
        <g
           id="g78"
           transform="translate(236.2737,222.062)">
          <path
             d="m 0,0 c 11.995,0 23.582,-0.067 35.167,0.013 30.767,0.214 53.947,23.582 53.983,54.399 0.029,24.796 0.006,49.592 0.006,74.388 v 5.025 c -16.485,0 -32.306,0.598 -48.064,-0.145 C 19.349,132.655 0.725,114.409 0.192,92.764 -0.564,62.106 0,31.415 0,0 m -22.816,0.222 c 0.153,0.823 0.307,1.265 0.307,1.707 0.009,29.746 0.264,59.496 -0.085,89.238 -0.24,20.502 -15.883,39.353 -36.307,41.598 -17.147,1.885 -34.62,0.803 -51.949,1.006 -0.23,0.002 -0.464,-0.366 -0.648,-0.521 V 0.222 Z M 111.309,156.289 V -22.096 H -133.73 v 178.385 h 4.748 c 19.996,0 39.993,-0.06 59.989,0.015 23.319,0.088 41.983,-9.144 56.087,-27.676 0.444,-0.582 0.921,-1.138 1.354,-1.671 0.504,0.248 0.866,0.307 1.019,0.518 14.886,20.392 35.067,29.453 60.151,28.896 18.747,-0.416 37.511,-0.082 56.267,-0.082 z"
             style="fill:#1a26fc;fill-opacity:1;fill-rule:nonzero;stroke:none"
             id="path80" />
        </g>
        <path
           d="M 297.269,247.15 H 250.42 v 15.117 h 46.849 z"
           style="fill:#1a26fc;fill-opacity:1;fill-rule:nonzero;stroke:none"
           id="path82" />
        <path
           d="m 288.141,275.522 h -37.736 v 15.088 h 37.736 z"
           style="fill:#1a26fc;fill-opacity:1;fill-rule:nonzero;stroke:none"
           id="path84" />
        <path
           d="m 311.288,304.04 h -36.852 v 15.025 h 36.852 z"
           style="fill:#1a26fc;fill-opacity:1;fill-rule:nonzero;stroke:none"
           id="path86" />
        <path
           d="m 264.957,304.124 h -14.468 v 14.839 h 14.468 z"
           style="fill:#1a26fc;fill-opacity:1;fill-rule:nonzero;stroke:none"
           id="path88" />
        <path
           d="m 297.73,290.672 h 13.506 V 275.531 H 297.73 Z"
           style="fill:#1a26fc;fill-opacity:1;fill-rule:nonzero;stroke:none"
           id="path90" />
      </g>
    </g>
  </g>
</svg>
